<svg xmlns="http://www.w3.org/2000/svg" width="1024" height="1024" fill="none" viewBox="0 0 1024 1024"><defs><linearGradient id="bg" x1="120" x2="900" y1="108" y2="926" gradientUnits="userSpaceOnUse"><stop offset="0" stop-color="#F8FBFF"/><stop offset=".55" stop-color="#EAF1F8"/><stop offset="1" stop-color="#DCE5F0"/></linearGradient><radialGradient id="glow" cx="0" cy="0" r="1" gradientTransform="translate(334 246) rotate(44.8) scale(462 407)" gradientUnits="userSpaceOnUse"><stop stop-color="#FFF" stop-opacity=".94"/><stop offset=".48" stop-color="#FFF" stop-opacity=".38"/><stop offset="1" stop-color="#FFF" stop-opacity="0"/></radialGradient><linearGradient id="glyph" x1="390" x2="646" y1="262" y2="670" gradientUnits="userSpaceOnUse"><stop stop-color="#1B68D4"/><stop offset="1" stop-color="#53A8FF"/></linearGradient><linearGradient id="ring" x1="338" x2="684" y1="446" y2="734" gradientUnits="userSpaceOnUse"><stop stop-color="#3E89ED" stop-opacity=".34"/><stop offset="1" stop-color="#7ABEFF" stop-opacity=".12"/></linearGradient><filter id="shadow" width="872" height="884" x="76" y="84" color-interpolation-filters="sRGB" filterUnits="userSpaceOnUse"><feFlood flood-opacity="0" result="BackgroundImageFix"/><feColorMatrix in="SourceAlpha" result="hardAlpha" type="matrix" values="0 0 0 0 0 0 0 0 0 0 0 0 0 0 0 0 0 0 127 0"/><feOffset dy="20"/><feGaussianBlur stdDeviation="28"/><feComposite in2="hardAlpha" operator="out"/><feColorMatrix type="matrix" values="0 0 0 0 0.0980392 0 0 0 0 0.184314 0 0 0 0 0.313726 0 0 0 0.12 0"/><feBlend in2="BackgroundImageFix" mode="normal" result="effect1_dropShadow_1_1"/><feBlend in="SourceGraphic" in2="effect1_dropShadow_1_1" mode="normal" result="shape"/></filter></defs><g filter="url(#shadow)"><rect width="816" height="816" x="104" y="108" fill="url(#bg)" rx="202"/><rect width="813" height="813" x="105.5" y="109.5" stroke="#FFF" stroke-opacity=".78" stroke-width="3" rx="200.5"/><rect width="740" height="740" x="142" y="146" fill="url(#glow)" rx="178"/><circle cx="512" cy="572" r="187" stroke="url(#ring)" stroke-width="30"/><circle cx="512" cy="572" r="128" stroke="#FFF" stroke-opacity=".58" stroke-width="10"/><circle cx="512" cy="572" r="42" fill="#FFF" fill-opacity=".92"/><circle cx="512" cy="572" r="16" fill="#1F6DDA"/><circle cx="512" cy="357" r="20" fill="#8DBFFF"/><circle cx="727" cy="572" r="20" fill="#8DBFFF" fill-opacity=".88"/><circle cx="512" cy="787" r="20" fill="#8DBFFF" fill-opacity=".78"/><circle cx="297" cy="572" r="20" fill="#8DBFFF" fill-opacity=".88"/><path fill="url(#glyph)" d="M395.89 315.486C349.934 355.465 323.128 421.114 323.128 500.059C323.128 552.416 350.404 586.298 391.419 586.298C427.829 586.298 450.851 553.764 456.383 497.601C462.84 431.915 448.081 361.582 395.89 315.486Z"/><path fill="url(#glyph)" d="M512.001 244.596C458.352 291.841 426.593 375.308 426.593 475.971C426.593 542.998 462.705 588.112 512.001 588.112C561.297 588.112 597.408 542.998 597.408 475.971C597.408 375.308 565.65 291.841 512.001 244.596Z"/><path fill="url(#glyph)" d="M628.109 315.486C576.92 360.695 561.159 431.465 567.586 497.601C573.04 553.58 596.082 586.298 632.59 586.298C673.596 586.298 700.871 552.416 700.871 500.059C700.871 421.114 674.064 355.465 628.109 315.486Z"/><path stroke="#1F6DDA" stroke-linecap="round" stroke-opacity=".92" stroke-width="24" d="M406 661C444.915 695.066 489.666 714 512 714C534.334 714 579.085 695.066 618 661"/></g></svg>